<?xml version="1.0" encoding="UTF-8" standalone="no"?><!DOCTYPE svg PUBLIC "-//W3C//DTD SVG 1.1//EN" "http://www.w3.org/Graphics/SVG/1.1/DTD/svg11.dtd"><svg width="100%" height="100%" viewBox="0 0 238 684" version="1.1" xmlns="http://www.w3.org/2000/svg" xmlns:xlink="http://www.w3.org/1999/xlink" xml:space="preserve" style="fill-rule:evenodd;clip-rule:evenodd;stroke-linejoin:round;stroke-miterlimit:1.41421;"><g><path d="M0.881,0.074l236.389,586.415l-236.957,96.775l0.568,-683.19l0,0Z" style="fill:#f5d7fe;"/><path d="M0.584,430.889l75.521,-121.314l7.282,13.017l-82.521,132.701l-0.282,-24.404Z" style="fill:#e9abfd;"/><path d="M83.439,322.4l16.144,10.046l-98.562,158.182l0.003,-35.829l82.415,-132.399Z" style="fill:#cb5ff4;"/><path d="M0.895,490.741l98.537,-158.217l15.06,1.336l-113.381,182.656l-0.216,-25.775Z" style="fill:#8e40ac;"/><path d="M76.099,309.514l58.251,-49.412l-50.945,62.448l-7.306,-13.036Z" style="fill:#fff0f0;"/><path d="M83.381,322.546l16.108,10.022l34.85,-72.469l-50.958,62.447Z" style="fill:#ffe1e1;"/><path d="M99.499,332.553l14.982,1.293l19.839,-73.728l-34.821,72.435Z" style="fill:#fed6d5;"/><path d="M134.324,260.124l-13.602,11.534l1.714,3.084l3.743,2.36l3.454,0.453l4.691,-17.431Z" style="fill:#575757;"/></g></svg>